{"glyphs":{" ":{"ha":608,"x_min":0,"x_max":0,"o":""},"A":{"ha":1389,"x_min":0,"x_max":1128,"o":"m 0 0 l 0 87 l 434 87 l 434 0 l 0 0 m 694 0 l 694 87 l 1128 87 l 1128 0 l 694 0 m 87 174 l 87 260 l 347 260 l 347 174 l 87 174 m 781 174 l 781 260 l 1042 260 l 1042 174 l 781 174 m 87 347 l 87 434 l 1042 434 l 1042 347 l 87 347 m 174 521 l 174 608 l 955 608 l 955 521 l 174 521 m 174 694 l 174 781 l 434 781 l 434 694 l 174 694 m 694 694 l 694 781 l 955 781 l 955 694 l 694 694 m 260 868 l 260 955 l 521 955 l 521 868 l 260 868 m 608 868 l 608 955 l 868 955 l 868 868 l 608 868 m 260 1042 l 260 1128 l 868 1128 l 868 1042 l 260 1042 m 174 1215 l 174 1302 l 955 1302 l 955 1215 l 174 1215 z "},"B":{"ha":1128,"x_min":0,"x_max":868,"o":"m 0 0 l 0 87 l 781 87 l 781 0 l 0 0 m 0 174 l 0 260 l 868 260 l 868 174 l 0 174 m 87 347 l 87 434 l 347 434 l 347 347 l 87 347 m 608 347 l 608 434 l 868 434 l 868 347 l 608 347 m 87 521 l 87 608 l 781 608 l 781 521 l 87 521 m 87 694 l 87 781 l 781 781 l 781 694 l 87 694 m 87 868 l 87 955 l 347 955 l 347 868 l 87 868 m 608 868 l 608 955 l 868 955 l 868 868 l 608 868 m 0 1042 l 0 1128 l 868 1128 l 868 1042 l 0 1042 m 0 1215 l 0 1302 l 781 1302 l 781 1215 l 0 1215 z "},"C":{"ha":1128,"x_min":0,"x_max":868,"o":"m 87 0 l 87 87 l 868 87 l 868 0 l 87 0 m 0 174 l 0 260 l 868 260 l 868 174 l 0 174 m 0 347 l 0 434 l 260 434 l 260 347 l 0 347 m 0 521 l 0 608 l 260 608 l 260 521 l 0 521 m 0 694 l 0 781 l 260 781 l 260 694 l 0 694 m 0 868 l 0 955 l 260 955 l 260 868 l 0 868 m 0 1042 l 0 1128 l 868 1128 l 868 1042 l 0 1042 m 87 1215 l 87 1302 l 868 1302 l 868 1215 l 87 1215 z "},"D":{"ha":1128,"x_min":0,"x_max":868,"o":"m 0 0 l 0 87 l 781 87 l 781 0 l 0 0 m 87 174 l 87 260 l 868 260 l 868 174 l 87 174 m 87 347 l 87 434 l 347 434 l 347 347 l 87 347 m 608 347 l 608 434 l 868 434 l 868 347 l 608 347 m 87 521 l 87 608 l 347 608 l 347 521 l 87 521 m 608 521 l 608 608 l 868 608 l 868 521 l 608 521 m 87 694 l 87 781 l 347 781 l 347 694 l 87 694 m 608 694 l 608 781 l 868 781 l 868 694 l 608 694 m 87 868 l 87 955 l 347 955 l 347 868 l 87 868 m 608 868 l 608 955 l 868 955 l 868 868 l 608 868 m 87 1042 l 87 1128 l 868 1128 l 868 1042 l 87 1042 m 0 1215 l 0 1302 l 781 1302 l 781 1215 l 0 1215 z "},"E":{"ha":1128,"x_min":0,"x_max":868,"o":"m 0 0 l 0 87 l 868 87 l 868 0 l 0 0 m 0 174 l 0 260 l 868 260 l 868 174 l 0 174 m 87 347 l 87 434 l 347 434 l 347 347 l 87 347 m 87 521 l 87 608 l 781 608 l 781 521 l 87 521 m 87 694 l 87 781 l 781 781 l 781 694 l 87 694 m 87 868 l 87 955 l 347 955 l 347 868 l 87 868 m 0 1042 l 0 1128 l 868 1128 l 868 1042 l 0 1042 m 0 1215 l 0 1302 l 868 1302 l 868 1215 l 0 1215 z "},"F":{"ha":1128,"x_min":0,"x_max":868,"o":"m 0 0 l 0 87 l 434 87 l 434 0 l 0 0 m 0 174 l 0 260 l 434 260 l 434 174 l 0 174 m 87 347 l 87 434 l 347 434 l 347 347 l 87 347 m 87 521 l 87 608 l 781 608 l 781 521 l 87 521 m 87 694 l 87 781 l 781 781 l 781 694 l 87 694 m 87 868 l 87 955 l 347 955 l 347 868 l 87 868 m 0 1042 l 0 1128 l 868 1128 l 868 1042 l 0 1042 m 0 1215 l 0 1302 l 868 1302 l 868 1215 l 0 1215 z "},"G":{"ha":1128,"x_min":0,"x_max":868,"o":"m 87 0 l 87 87 l 781 87 l 781 0 l 87 0 m 0 174 l 0 260 l 868 260 l 868 174 l 0 174 m 0 347 l 0 434 l 260 434 l 260 347 l 0 347 m 608 347 l 608 434 l 868 434 l 868 347 l 608 347 m 0 521 l 0 608 l 260 608 l 260 521 l 0 521 m 521 521 l 521 608 l 868 608 l 868 521 l 521 521 m 0 694 l 0 781 l 260 781 l 260 694 l 0 694 m 0 868 l 0 955 l 260 955 l 260 868 l 0 868 m 0 1042 l 0 1128 l 868 1128 l 868 1042 l 0 1042 m 87 1215 l 87 1302 l 868 1302 l 868 1215 l 87 1215 z "},"H":{"ha":1389,"x_min":0,"x_max":1128,"o":"m 0 0 l 0 87 l 434 87 l 434 0 l 0 0 m 694 0 l 694 87 l 1128 87 l 1128 0 l 694 0 m 0 174 l 0 260 l 434 260 l 434 174 l 0 174 m 694 174 l 694 260 l 1128 260 l 1128 174 l 694 174 m 87 347 l 87 434 l 347 434 l 347 347 l 87 347 m 781 347 l 781 434 l 1042 434 l 1042 347 l 781 347 m 87 521 l 87 608 l 1042 608 l 1042 521 l 87 521 m 87 694 l 87 781 l 1042 781 l 1042 694 l 87 694 m 87 868 l 87 955 l 347 955 l 347 868 l 87 868 m 781 868 l 781 955 l 1042 955 l 1042 868 l 781 868 m 0 1042 l 0 1128 l 434 1128 l 434 1042 l 0 1042 m 694 1042 l 694 1128 l 1128 1128 l 1128 1042 l 694 1042 m 0 1215 l 0 1302 l 434 1302 l 434 1215 l 0 1215 m 694 1215 l 694 1302 l 1128 1302 l 1128 1215 l 694 1215 z "},"I":{"ha":694,"x_min":0,"x_max":434,"o":"m 0 0 l 0 87 l 434 87 l 434 0 l 0 0 m 0 174 l 0 260 l 434 260 l 434 174 l 0 174 m 87 347 l 87 434 l 347 434 l 347 347 l 87 347 m 87 521 l 87 608 l 347 608 l 347 521 l 87 521 m 87 694 l 87 781 l 347 781 l 347 694 l 87 694 m 87 868 l 87 955 l 347 955 l 347 868 l 87 868 m 0 1042 l 0 1128 l 434 1128 l 434 1042 l 0 1042 m 0 1215 l 0 1302 l 434 1302 l 434 1215 l 0 1215 z "},"J":{"ha":1128,"x_min":0,"x_max":868,"o":"m 87 0 l 87 87 l 694 87 l 694 0 l 87 0 m 0 174 l 0 260 l 781 260 l 781 174 l 0 174 m 0 347 l 0 434 l 260 434 l 260 347 l 0 347 m 521 347 l 521 434 l 781 434 l 781 347 l 521 347 m 0 521 l 0 608 l 260 608 l 260 521 l 0 521 m 521 521 l 521 608 l 781 608 l 781 521 l 521 521 m 521 694 l 521 781 l 781 781 l 781 694 l 521 694 m 521 868 l 521 955 l 781 955 l 781 868 l 521 868 m 521 1042 l 521 1128 l 781 1128 l 781 1042 l 521 1042 m 434 1215 l 434 1302 l 868 1302 l 868 1215 l 434 1215 z "},"K":{"ha":1389,"x_min":0,"x_max":1128,"o":"m 0 0 l 0 87 l 434 87 l 434 0 l 0 0 m 694 0 l 694 87 l 1128 87 l 1128 0 l 694 0 m 0 174 l 0 260 l 434 260 l 434 174 l 0 174 m 781 174 l 781 260 l 1042 260 l 1042 174 l 781 174 m 87 347 l 87 434 l 347 434 l 347 347 l 87 347 m 694 347 l 694 434 l 955 434 l 955 347 l 694 347 m 87 521 l 87 608 l 868 608 l 868 521 l 87 521 m 87 694 l 87 781 l 868 781 l 868 694 l 87 694 m 87 868 l 87 955 l 347 955 l 347 868 l 87 868 m 694 868 l 694 955 l 955 955 l 955 868 l 694 868 m 0 1042 l 0 1128 l 434 1128 l 434 1042 l 0 1042 m 781 1042 l 781 1128 l 1042 1128 l 1042 1042 l 781 1042 m 0 1215 l 0 1302 l 434 1302 l 434 1215 l 0 1215 m 694 1215 l 694 1302 l 1128 1302 l 1128 1215 l 694 1215 z "},"L":{"ha":1128,"x_min":0,"x_max":868,"o":"m 0 0 l 0 87 l 868 87 l 868 0 l 0 0 m 0 174 l 0 260 l 868 260 l 868 174 l 0 174 m 87 347 l 87 434 l 347 434 l 347 347 l 87 347 m 87 521 l 87 608 l 347 608 l 347 521 l 87 521 m 87 694 l 87 781 l 347 781 l 347 694 l 87 694 m 87 868 l 87 955 l 347 955 l 347 868 l 87 868 m 0 1042 l 0 1128 l 434 1128 l 434 1042 l 0 1042 m 0 1215 l 0 1302 l 434 1302 l 434 1215 l 0 1215 z "},"M":{"ha":1736,"x_min":0,"x_max":1476,"o":"m 0 0 l 0 87 l 434 87 l 434 0 l 0 0 m 694 0 l 694 87 l 781 87 l 781 0 l 694 0 m 1042 0 l 1042 87 l 1476 87 l 1476 0 l 1042 0 m 0 174 l 0 260 l 434 260 l 434 174 l 0 174 m 608 174 l 608 260 l 868 260 l 868 174 l 608 174 m 1128 174 l 1128 260 l 1389 260 l 1389 174 l 1128 174 m 87 347 l 87 434 l 347 434 l 347 347 l 87 347 m 521 347 l 521 434 l 955 434 l 955 347 l 521 347 m 1128 347 l 1128 434 l 1389 434 l 1389 347 l 1128 347 m 87 521 l 87 608 l 347 608 l 347 521 l 87 521 m 434 521 l 434 608 l 1042 608 l 1042 521 l 434 521 m 1128 521 l 1128 608 l 1389 608 l 1389 521 l 1128 521 m 87 694 l 87 781 l 694 781 l 694 694 l 87 694 m 781 694 l 781 781 l 1389 781 l 1389 694 l 781 694 m 87 868 l 87 955 l 608 955 l 608 868 l 87 868 m 868 868 l 868 955 l 1389 955 l 1389 868 l 868 868 m 0 1042 l 0 1128 l 521 1128 l 521 1042 l 0 1042 m 955 1042 l 955 1128 l 1476 1128 l 1476 1042 l 955 1042 m 0 1215 l 0 1302 l 434 1302 l 434 1215 l 0 1215 m 1042 1215 l 1042 1302 l 1476 1302 l 1476 1215 l 1042 1215 z "},"N":{"ha":1389,"x_min":0,"x_max":1128,"o":"m 0 0 l 0 87 l 434 87 l 434 0 l 0 0 m 694 0 l 694 87 l 1128 87 l 1128 0 l 694 0 m 0 174 l 0 260 l 434 260 l 434 174 l 0 174 m 608 174 l 608 260 l 1128 260 l 1128 174 l 608 174 m 87 347 l 87 434 l 347 434 l 347 347 l 87 347 m 521 347 l 521 434 l 1042 434 l 1042 347 l 521 347 m 87 521 l 87 608 l 347 608 l 347 521 l 87 521 m 434 521 l 434 608 l 1042 608 l 1042 521 l 434 521 m 87 694 l 87 781 l 694 781 l 694 694 l 87 694 m 781 694 l 781 781 l 1042 781 l 1042 694 l 781 694 m 87 868 l 87 955 l 608 955 l 608 868 l 87 868 m 781 868 l 781 955 l 1042 955 l 1042 868 l 781 868 m 0 1042 l 0 1128 l 521 1128 l 521 1042 l 0 1042 m 694 1042 l 694 1128 l 1128 1128 l 1128 1042 l 694 1042 m 0 1215 l 0 1302 l 434 1302 l 434 1215 l 0 1215 m 694 1215 l 694 1302 l 1128 1302 l 1128 1215 l 694 1215 z "},"O":{"ha":1128,"x_min":0,"x_max":868,"o":"m 87 0 l 87 87 l 781 87 l 781 0 l 87 0 m 0 174 l 0 260 l 868 260 l 868 174 l 0 174 m 0 347 l 0 434 l 260 434 l 260 347 l 0 347 m 608 347 l 608 434 l 868 434 l 868 347 l 608 347 m 0 521 l 0 608 l 260 608 l 260 521 l 0 521 m 608 521 l 608 608 l 868 608 l 868 521 l 608 521 m 0 694 l 0 781 l 260 781 l 260 694 l 0 694 m 608 694 l 608 781 l 868 781 l 868 694 l 608 694 m 0 868 l 0 955 l 260 955 l 260 868 l 0 868 m 608 868 l 608 955 l 868 955 l 868 868 l 608 868 m 0 1042 l 0 1128 l 868 1128 l 868 1042 l 0 1042 m 87 1215 l 87 1302 l 781 1302 l 781 1215 l 87 1215 z "},"P":{"ha":1128,"x_min":0,"x_max":868,"o":"m 0 0 l 0 87 l 434 87 l 434 0 l 0 0 m 0 174 l 0 260 l 434 260 l 434 174 l 0 174 m 87 347 l 87 434 l 347 434 l 347 347 l 87 347 m 87 521 l 87 608 l 781 608 l 781 521 l 87 521 m 87 694 l 87 781 l 868 781 l 868 694 l 87 694 m 87 868 l 87 955 l 347 955 l 347 868 l 87 868 m 608 868 l 608 955 l 868 955 l 868 868 l 608 868 m 0 1042 l 0 1128 l 868 1128 l 868 1042 l 0 1042 m 0 1215 l 0 1302 l 781 1302 l 781 1215 l 0 1215 z "},"Q":{"ha":1128,"x_min":0,"x_max":868,"o":"m 434 -347 l 434 -260 l 694 -260 l 694 -347 l 434 -347 m 347 -174 l 347 -87 l 608 -87 l 608 -174 l 347 -174 m 87 0 l 87 87 l 781 87 l 781 0 l 87 0 m 0 174 l 0 260 l 868 260 l 868 174 l 0 174 m 0 347 l 0 434 l 260 434 l 260 347 l 0 347 m 608 347 l 608 434 l 868 434 l 868 347 l 608 347 m 0 521 l 0 608 l 260 608 l 260 521 l 0 521 m 608 521 l 608 608 l 868 608 l 868 521 l 608 521 m 0 694 l 0 781 l 260 781 l 260 694 l 0 694 m 608 694 l 608 781 l 868 781 l 868 694 l 608 694 m 0 868 l 0 955 l 260 955 l 260 868 l 0 868 m 608 868 l 608 955 l 868 955 l 868 868 l 608 868 m 0 1042 l 0 1128 l 868 1128 l 868 1042 l 0 1042 m 87 1215 l 87 1302 l 781 1302 l 781 1215 l 87 1215 z "},"R":{"ha":1389,"x_min":0,"x_max":1128,"o":"m 0 0 l 0 87 l 434 87 l 434 0 l 0 0 m 694 0 l 694 87 l 1128 87 l 1128 0 l 694 0 m 0 174 l 0 260 l 434 260 l 434 174 l 0 174 m 694 174 l 694 260 l 1128 260 l 1128 174 l 694 174 m 87 347 l 87 434 l 347 434 l 347 347 l 87 347 m 781 347 l 781 434 l 1042 434 l 1042 347 l 781 347 m 87 521 l 87 608 l 955 608 l 955 521 l 87 521 m 87 694 l 87 781 l 955 781 l 955 694 l 87 694 m 87 868 l 87 955 l 347 955 l 347 868 l 87 868 m 781 868 l 781 955 l 1042 955 l 1042 868 l 781 868 m 0 1042 l 0 1128 l 1042 1128 l 1042 1042 l 0 1042 m 0 1215 l 0 1302 l 955 1302 l 955 1215 l 0 1215 z "},"S":{"ha":1128,"x_min":0,"x_max":868,"o":"m 0 0 l 0 87 l 781 87 l 781 0 l 0 0 m 0 174 l 0 260 l 868 260 l 868 174 l 0 174 m 608 347 l 608 434 l 868 434 l 868 347 l 608 347 m 347 521 l 347 608 l 694 608 l 694 521 l 347 521 m 174 694 l 174 781 l 521 781 l 521 694 l 174 694 m 0 868 l 0 955 l 260 955 l 260 868 l 0 868 m 0 1042 l 0 1128 l 868 1128 l 868 1042 l 0 1042 m 87 1215 l 87 1302 l 868 1302 l 868 1215 l 87 1215 z "},"T":{"ha":1215,"x_min":0,"x_max":955,"o":"m 260 0 l 260 87 l 694 87 l 694 0 l 260 0 m 260 174 l 260 260 l 694 260 l 694 174 l 260 174 m 347 347 l 347 434 l 608 434 l 608 347 l 347 347 m 347 521 l 347 608 l 608 608 l 608 521 l 347 521 m 347 694 l 347 781 l 608 781 l 608 694 l 347 694 m 347 868 l 347 955 l 608 955 l 608 868 l 347 868 m 0 1042 l 0 1128 l 955 1128 l 955 1042 l 0 1042 m 0 1215 l 0 1302 l 955 1302 l 955 1215 l 0 1215 z "},"U":{"ha":1389,"x_min":0,"x_max":1128,"o":"m 174 0 l 174 87 l 955 87 l 955 0 l 174 0 m 87 174 l 87 260 l 1042 260 l 1042 174 l 87 174 m 87 347 l 87 434 l 347 434 l 347 347 l 87 347 m 781 347 l 781 434 l 1042 434 l 1042 347 l 781 347 m 87 521 l 87 608 l 347 608 l 347 521 l 87 521 m 781 521 l 781 608 l 1042 608 l 1042 521 l 781 521 m 87 694 l 87 781 l 347 781 l 347 694 l 87 694 m 781 694 l 781 781 l 1042 781 l 1042 694 l 781 694 m 87 868 l 87 955 l 347 955 l 347 868 l 87 868 m 781 868 l 781 955 l 1042 955 l 1042 868 l 781 868 m 0 1042 l 0 1128 l 434 1128 l 434 1042 l 0 1042 m 694 1042 l 694 1128 l 1128 1128 l 1128 1042 l 694 1042 m 0 1215 l 0 1302 l 434 1302 l 434 1215 l 0 1215 m 694 1215 l 694 1302 l 1128 1302 l 1128 1215 l 694 1215 z "},"V":{"ha":1389,"x_min":0,"x_max":1128,"o":"m 347 0 l 347 87 l 781 87 l 781 0 l 347 0 m 260 174 l 260 260 l 868 260 l 868 174 l 260 174 m 260 347 l 260 434 l 521 434 l 521 347 l 260 347 m 608 347 l 608 434 l 868 434 l 868 347 l 608 347 m 174 521 l 174 608 l 434 608 l 434 521 l 174 521 m 694 521 l 694 608 l 955 608 l 955 521 l 694 521 m 174 694 l 174 781 l 434 781 l 434 694 l 174 694 m 694 694 l 694 781 l 955 781 l 955 694 l 694 694 m 87 868 l 87 955 l 347 955 l 347 868 l 87 868 m 781 868 l 781 955 l 1042 955 l 1042 868 l 781 868 m 87 1042 l 87 1128 l 347 1128 l 347 1042 l 87 1042 m 781 1042 l 781 1128 l 1042 1128 l 1042 1042 l 781 1042 m 0 1215 l 0 1302 l 434 1302 l 434 1215 l 0 1215 m 694 1215 l 694 1302 l 1128 1302 l 1128 1215 l 694 1215 z "},"W":{"ha":1910,"x_min":0,"x_max":1649,"o":"m 347 0 l 347 87 l 781 87 l 781 0 l 347 0 m 868 0 l 868 87 l 1302 87 l 1302 0 l 868 0 m 260 174 l 260 260 l 1389 260 l 1389 174 l 260 174 m 260 347 l 260 434 l 521 434 l 521 347 l 260 347 m 608 347 l 608 434 l 1042 434 l 1042 347 l 608 347 m 1128 347 l 1128 434 l 1389 434 l 1389 347 l 1128 347 m 174 521 l 174 608 l 434 608 l 434 521 l 174 521 m 694 521 l 694 608 l 955 608 l 955 521 l 694 521 m 1215 521 l 1215 608 l 1476 608 l 1476 521 l 1215 521 m 174 694 l 174 781 l 434 781 l 434 694 l 174 694 m 694 694 l 694 781 l 955 781 l 955 694 l 694 694 m 1215 694 l 1215 781 l 1476 781 l 1476 694 l 1215 694 m 87 868 l 87 955 l 347 955 l 347 868 l 87 868 m 1302 868 l 1302 955 l 1563 955 l 1563 868 l 1302 868 m 87 1042 l 87 1128 l 347 1128 l 347 1042 l 87 1042 m 1302 1042 l 1302 1128 l 1563 1128 l 1563 1042 l 1302 1042 m 0 1215 l 0 1302 l 434 1302 l 434 1215 l 0 1215 m 1215 1215 l 1215 1302 l 1649 1302 l 1649 1215 l 1215 1215 z "},"X":{"ha":1389,"x_min":0,"x_max":1128,"o":"m 0 0 l 0 87 l 434 87 l 434 0 l 0 0 m 694 0 l 694 87 l 1128 87 l 1128 0 l 694 0 m 0 174 l 0 260 l 434 260 l 434 174 l 0 174 m 694 174 l 694 260 l 1128 260 l 1128 174 l 694 174 m 87 347 l 87 434 l 347 434 l 347 347 l 87 347 m 781 347 l 781 434 l 1042 434 l 1042 347 l 781 347 m 174 521 l 174 608 l 955 608 l 955 521 l 174 521 m 174 694 l 174 781 l 955 781 l 955 694 l 174 694 m 87 868 l 87 955 l 347 955 l 347 868 l 87 868 m 781 868 l 781 955 l 1042 955 l 1042 868 l 781 868 m 0 1042 l 0 1128 l 434 1128 l 434 1042 l 0 1042 m 694 1042 l 694 1128 l 1128 1128 l 1128 1042 l 694 1042 m 0 1215 l 0 1302 l 434 1302 l 434 1215 l 0 1215 m 694 1215 l 694 1302 l 1128 1302 l 1128 1215 l 694 1215 z "},"Y":{"ha":1389,"x_min":0,"x_max":1128,"o":"m 347 0 l 347 87 l 781 87 l 781 0 l 347 0 m 347 174 l 347 260 l 781 260 l 781 174 l 347 174 m 434 347 l 434 434 l 694 434 l 694 347 l 434 347 m 347 521 l 347 608 l 781 608 l 781 521 l 347 521 m 260 694 l 260 781 l 868 781 l 868 694 l 260 694 m 174 868 l 174 955 l 434 955 l 434 868 l 174 868 m 694 868 l 694 955 l 955 955 l 955 868 l 694 868 m 0 1042 l 0 1128 l 434 1128 l 434 1042 l 0 1042 m 694 1042 l 694 1128 l 1128 1128 l 1128 1042 l 694 1042 m 0 1215 l 0 1302 l 434 1302 l 434 1215 l 0 1215 m 694 1215 l 694 1302 l 1128 1302 l 1128 1215 l 694 1215 z "},"Z":{"ha":1128,"x_min":0,"x_max":868,"o":"m 0 0 l 0 87 l 868 87 l 868 0 l 0 0 m 0 174 l 0 260 l 868 260 l 868 174 l 0 174 m 0 347 l 0 434 l 260 434 l 260 347 l 0 347 m 174 521 l 174 608 l 521 608 l 521 521 l 174 521 m 347 694 l 347 781 l 694 781 l 694 694 l 347 694 m 608 868 l 608 955 l 868 955 l 868 868 l 608 868 m 0 1042 l 0 1128 l 868 1128 l 868 1042 l 0 1042 m 0 1215 l 0 1302 l 868 1302 l 868 1215 l 0 1215 z "},"a":{"ha":1389,"x_min":0,"x_max":1128,"o":"m 0 0 l 0 87 l 434 87 l 434 0 l 0 0 m 694 0 l 694 87 l 1128 87 l 1128 0 l 694 0 m 87 174 l 87 260 l 347 260 l 347 174 l 87 174 m 781 174 l 781 260 l 1042 260 l 1042 174 l 781 174 m 87 347 l 87 434 l 1042 434 l 1042 347 l 87 347 m 174 521 l 174 608 l 955 608 l 955 521 l 174 521 m 174 694 l 174 781 l 434 781 l 434 694 l 174 694 m 694 694 l 694 781 l 955 781 l 955 694 l 694 694 m 260 868 l 260 955 l 521 955 l 521 868 l 260 868 m 608 868 l 608 955 l 868 955 l 868 868 l 608 868 m 260 1042 l 260 1128 l 868 1128 l 868 1042 l 260 1042 m 174 1215 l 174 1302 l 955 1302 l 955 1215 l 174 1215 z "},"b":{"ha":1128,"x_min":0,"x_max":868,"o":"m 0 0 l 0 87 l 781 87 l 781 0 l 0 0 m 0 174 l 0 260 l 868 260 l 868 174 l 0 174 m 87 347 l 87 434 l 347 434 l 347 347 l 87 347 m 608 347 l 608 434 l 868 434 l 868 347 l 608 347 m 87 521 l 87 608 l 781 608 l 781 521 l 87 521 m 87 694 l 87 781 l 781 781 l 781 694 l 87 694 m 87 868 l 87 955 l 347 955 l 347 868 l 87 868 m 608 868 l 608 955 l 868 955 l 868 868 l 608 868 m 0 1042 l 0 1128 l 868 1128 l 868 1042 l 0 1042 m 0 1215 l 0 1302 l 781 1302 l 781 1215 l 0 1215 z "},"c":{"ha":1128,"x_min":0,"x_max":868,"o":"m 87 0 l 87 87 l 868 87 l 868 0 l 87 0 m 0 174 l 0 260 l 868 260 l 868 174 l 0 174 m 0 347 l 0 434 l 260 434 l 260 347 l 0 347 m 0 521 l 0 608 l 260 608 l 260 521 l 0 521 m 0 694 l 0 781 l 260 781 l 260 694 l 0 694 m 0 868 l 0 955 l 260 955 l 260 868 l 0 868 m 0 1042 l 0 1128 l 868 1128 l 868 1042 l 0 1042 m 87 1215 l 87 1302 l 868 1302 l 868 1215 l 87 1215 z "},"d":{"ha":1128,"x_min":0,"x_max":868,"o":"m 0 0 l 0 87 l 781 87 l 781 0 l 0 0 m 87 174 l 87 260 l 868 260 l 868 174 l 87 174 m 87 347 l 87 434 l 347 434 l 347 347 l 87 347 m 608 347 l 608 434 l 868 434 l 868 347 l 608 347 m 87 521 l 87 608 l 347 608 l 347 521 l 87 521 m 608 521 l 608 608 l 868 608 l 868 521 l 608 521 m 87 694 l 87 781 l 347 781 l 347 694 l 87 694 m 608 694 l 608 781 l 868 781 l 868 694 l 608 694 m 87 868 l 87 955 l 347 955 l 347 868 l 87 868 m 608 868 l 608 955 l 868 955 l 868 868 l 608 868 m 87 1042 l 87 1128 l 868 1128 l 868 1042 l 87 1042 m 0 1215 l 0 1302 l 781 1302 l 781 1215 l 0 1215 z "},"e":{"ha":1128,"x_min":0,"x_max":868,"o":"m 0 0 l 0 87 l 868 87 l 868 0 l 0 0 m 0 174 l 0 260 l 868 260 l 868 174 l 0 174 m 87 347 l 87 434 l 347 434 l 347 347 l 87 347 m 87 521 l 87 608 l 781 608 l 781 521 l 87 521 m 87 694 l 87 781 l 781 781 l 781 694 l 87 694 m 87 868 l 87 955 l 347 955 l 347 868 l 87 868 m 0 1042 l 0 1128 l 868 1128 l 868 1042 l 0 1042 m 0 1215 l 0 1302 l 868 1302 l 868 1215 l 0 1215 z "},"f":{"ha":1128,"x_min":0,"x_max":868,"o":"m 0 0 l 0 87 l 434 87 l 434 0 l 0 0 m 0 174 l 0 260 l 434 260 l 434 174 l 0 174 m 87 347 l 87 434 l 347 434 l 347 347 l 87 347 m 87 521 l 87 608 l 781 608 l 781 521 l 87 521 m 87 694 l 87 781 l 781 781 l 781 694 l 87 694 m 87 868 l 87 955 l 347 955 l 347 868 l 87 868 m 0 1042 l 0 1128 l 868 1128 l 868 1042 l 0 1042 m 0 1215 l 0 1302 l 868 1302 l 868 1215 l 0 1215 z "},"g":{"ha":1128,"x_min":0,"x_max":868,"o":"m 87 0 l 87 87 l 781 87 l 781 0 l 87 0 m 0 174 l 0 260 l 868 260 l 868 174 l 0 174 m 0 347 l 0 434 l 260 434 l 260 347 l 0 347 m 608 347 l 608 434 l 868 434 l 868 347 l 608 347 m 0 521 l 0 608 l 260 608 l 260 521 l 0 521 m 521 521 l 521 608 l 868 608 l 868 521 l 521 521 m 0 694 l 0 781 l 260 781 l 260 694 l 0 694 m 0 868 l 0 955 l 260 955 l 260 868 l 0 868 m 0 1042 l 0 1128 l 868 1128 l 868 1042 l 0 1042 m 87 1215 l 87 1302 l 868 1302 l 868 1215 l 87 1215 z "},"h":{"ha":1389,"x_min":0,"x_max":1128,"o":"m 0 0 l 0 87 l 434 87 l 434 0 l 0 0 m 694 0 l 694 87 l 1128 87 l 1128 0 l 694 0 m 0 174 l 0 260 l 434 260 l 434 174 l 0 174 m 694 174 l 694 260 l 1128 260 l 1128 174 l 694 174 m 87 347 l 87 434 l 347 434 l 347 347 l 87 347 m 781 347 l 781 434 l 1042 434 l 1042 347 l 781 347 m 87 521 l 87 608 l 1042 608 l 1042 521 l 87 521 m 87 694 l 87 781 l 1042 781 l 1042 694 l 87 694 m 87 868 l 87 955 l 347 955 l 347 868 l 87 868 m 781 868 l 781 955 l 1042 955 l 1042 868 l 781 868 m 0 1042 l 0 1128 l 434 1128 l 434 1042 l 0 1042 m 694 1042 l 694 1128 l 1128 1128 l 1128 1042 l 694 1042 m 0 1215 l 0 1302 l 434 1302 l 434 1215 l 0 1215 m 694 1215 l 694 1302 l 1128 1302 l 1128 1215 l 694 1215 z "},"i":{"ha":694,"x_min":0,"x_max":434,"o":"m 0 0 l 0 87 l 434 87 l 434 0 l 0 0 m 0 174 l 0 260 l 434 260 l 434 174 l 0 174 m 87 347 l 87 434 l 347 434 l 347 347 l 87 347 m 87 521 l 87 608 l 347 608 l 347 521 l 87 521 m 87 694 l 87 781 l 347 781 l 347 694 l 87 694 m 87 868 l 87 955 l 347 955 l 347 868 l 87 868 m 0 1042 l 0 1128 l 434 1128 l 434 1042 l 0 1042 m 0 1215 l 0 1302 l 434 1302 l 434 1215 l 0 1215 z "},"j":{"ha":1128,"x_min":0,"x_max":868,"o":"m 87 0 l 87 87 l 694 87 l 694 0 l 87 0 m 0 174 l 0 260 l 781 260 l 781 174 l 0 174 m 0 347 l 0 434 l 260 434 l 260 347 l 0 347 m 521 347 l 521 434 l 781 434 l 781 347 l 521 347 m 0 521 l 0 608 l 260 608 l 260 521 l 0 521 m 521 521 l 521 608 l 781 608 l 781 521 l 521 521 m 521 694 l 521 781 l 781 781 l 781 694 l 521 694 m 521 868 l 521 955 l 781 955 l 781 868 l 521 868 m 521 1042 l 521 1128 l 781 1128 l 781 1042 l 521 1042 m 434 1215 l 434 1302 l 868 1302 l 868 1215 l 434 1215 z "},"k":{"ha":1389,"x_min":0,"x_max":1128,"o":"m 0 0 l 0 87 l 434 87 l 434 0 l 0 0 m 694 0 l 694 87 l 1128 87 l 1128 0 l 694 0 m 0 174 l 0 260 l 434 260 l 434 174 l 0 174 m 781 174 l 781 260 l 1042 260 l 1042 174 l 781 174 m 87 347 l 87 434 l 347 434 l 347 347 l 87 347 m 694 347 l 694 434 l 955 434 l 955 347 l 694 347 m 87 521 l 87 608 l 868 608 l 868 521 l 87 521 m 87 694 l 87 781 l 868 781 l 868 694 l 87 694 m 87 868 l 87 955 l 347 955 l 347 868 l 87 868 m 694 868 l 694 955 l 955 955 l 955 868 l 694 868 m 0 1042 l 0 1128 l 434 1128 l 434 1042 l 0 1042 m 781 1042 l 781 1128 l 1042 1128 l 1042 1042 l 781 1042 m 0 1215 l 0 1302 l 434 1302 l 434 1215 l 0 1215 m 694 1215 l 694 1302 l 1128 1302 l 1128 1215 l 694 1215 z "},"l":{"ha":1128,"x_min":0,"x_max":868,"o":"m 0 0 l 0 87 l 868 87 l 868 0 l 0 0 m 0 174 l 0 260 l 868 260 l 868 174 l 0 174 m 87 347 l 87 434 l 347 434 l 347 347 l 87 347 m 87 521 l 87 608 l 347 608 l 347 521 l 87 521 m 87 694 l 87 781 l 347 781 l 347 694 l 87 694 m 87 868 l 87 955 l 347 955 l 347 868 l 87 868 m 0 1042 l 0 1128 l 434 1128 l 434 1042 l 0 1042 m 0 1215 l 0 1302 l 434 1302 l 434 1215 l 0 1215 z "},"m":{"ha":1736,"x_min":0,"x_max":1476,"o":"m 0 0 l 0 87 l 434 87 l 434 0 l 0 0 m 694 0 l 694 87 l 781 87 l 781 0 l 694 0 m 1042 0 l 1042 87 l 1476 87 l 1476 0 l 1042 0 m 0 174 l 0 260 l 434 260 l 434 174 l 0 174 m 608 174 l 608 260 l 868 260 l 868 174 l 608 174 m 1128 174 l 1128 260 l 1389 260 l 1389 174 l 1128 174 m 87 347 l 87 434 l 347 434 l 347 347 l 87 347 m 521 347 l 521 434 l 955 434 l 955 347 l 521 347 m 1128 347 l 1128 434 l 1389 434 l 1389 347 l 1128 347 m 87 521 l 87 608 l 347 608 l 347 521 l 87 521 m 434 521 l 434 608 l 1042 608 l 1042 521 l 434 521 m 1128 521 l 1128 608 l 1389 608 l 1389 521 l 1128 521 m 87 694 l 87 781 l 694 781 l 694 694 l 87 694 m 781 694 l 781 781 l 1389 781 l 1389 694 l 781 694 m 87 868 l 87 955 l 608 955 l 608 868 l 87 868 m 868 868 l 868 955 l 1389 955 l 1389 868 l 868 868 m 0 1042 l 0 1128 l 521 1128 l 521 1042 l 0 1042 m 955 1042 l 955 1128 l 1476 1128 l 1476 1042 l 955 1042 m 0 1215 l 0 1302 l 434 1302 l 434 1215 l 0 1215 m 1042 1215 l 1042 1302 l 1476 1302 l 1476 1215 l 1042 1215 z "},"n":{"ha":1389,"x_min":0,"x_max":1128,"o":"m 0 0 l 0 87 l 434 87 l 434 0 l 0 0 m 694 0 l 694 87 l 1128 87 l 1128 0 l 694 0 m 0 174 l 0 260 l 434 260 l 434 174 l 0 174 m 608 174 l 608 260 l 1128 260 l 1128 174 l 608 174 m 87 347 l 87 434 l 347 434 l 347 347 l 87 347 m 521 347 l 521 434 l 1042 434 l 1042 347 l 521 347 m 87 521 l 87 608 l 347 608 l 347 521 l 87 521 m 434 521 l 434 608 l 1042 608 l 1042 521 l 434 521 m 87 694 l 87 781 l 694 781 l 694 694 l 87 694 m 781 694 l 781 781 l 1042 781 l 1042 694 l 781 694 m 87 868 l 87 955 l 608 955 l 608 868 l 87 868 m 781 868 l 781 955 l 1042 955 l 1042 868 l 781 868 m 0 1042 l 0 1128 l 521 1128 l 521 1042 l 0 1042 m 694 1042 l 694 1128 l 1128 1128 l 1128 1042 l 694 1042 m 0 1215 l 0 1302 l 434 1302 l 434 1215 l 0 1215 m 694 1215 l 694 1302 l 1128 1302 l 1128 1215 l 694 1215 z "},"o":{"ha":1128,"x_min":0,"x_max":868,"o":"m 87 0 l 87 87 l 781 87 l 781 0 l 87 0 m 0 174 l 0 260 l 868 260 l 868 174 l 0 174 m 0 347 l 0 434 l 260 434 l 260 347 l 0 347 m 608 347 l 608 434 l 868 434 l 868 347 l 608 347 m 0 521 l 0 608 l 260 608 l 260 521 l 0 521 m 608 521 l 608 608 l 868 608 l 868 521 l 608 521 m 0 694 l 0 781 l 260 781 l 260 694 l 0 694 m 608 694 l 608 781 l 868 781 l 868 694 l 608 694 m 0 868 l 0 955 l 260 955 l 260 868 l 0 868 m 608 868 l 608 955 l 868 955 l 868 868 l 608 868 m 0 1042 l 0 1128 l 868 1128 l 868 1042 l 0 1042 m 87 1215 l 87 1302 l 781 1302 l 781 1215 l 87 1215 z "},"p":{"ha":1128,"x_min":0,"x_max":868,"o":"m 0 0 l 0 87 l 434 87 l 434 0 l 0 0 m 0 174 l 0 260 l 434 260 l 434 174 l 0 174 m 87 347 l 87 434 l 347 434 l 347 347 l 87 347 m 87 521 l 87 608 l 781 608 l 781 521 l 87 521 m 87 694 l 87 781 l 868 781 l 868 694 l 87 694 m 87 868 l 87 955 l 347 955 l 347 868 l 87 868 m 608 868 l 608 955 l 868 955 l 868 868 l 608 868 m 0 1042 l 0 1128 l 868 1128 l 868 1042 l 0 1042 m 0 1215 l 0 1302 l 781 1302 l 781 1215 l 0 1215 z "},"q":{"ha":1128,"x_min":0,"x_max":868,"o":"m 434 -347 l 434 -260 l 694 -260 l 694 -347 l 434 -347 m 347 -174 l 347 -87 l 608 -87 l 608 -174 l 347 -174 m 87 0 l 87 87 l 781 87 l 781 0 l 87 0 m 0 174 l 0 260 l 868 260 l 868 174 l 0 174 m 0 347 l 0 434 l 260 434 l 260 347 l 0 347 m 608 347 l 608 434 l 868 434 l 868 347 l 608 347 m 0 521 l 0 608 l 260 608 l 260 521 l 0 521 m 608 521 l 608 608 l 868 608 l 868 521 l 608 521 m 0 694 l 0 781 l 260 781 l 260 694 l 0 694 m 608 694 l 608 781 l 868 781 l 868 694 l 608 694 m 0 868 l 0 955 l 260 955 l 260 868 l 0 868 m 608 868 l 608 955 l 868 955 l 868 868 l 608 868 m 0 1042 l 0 1128 l 868 1128 l 868 1042 l 0 1042 m 87 1215 l 87 1302 l 781 1302 l 781 1215 l 87 1215 z "},"r":{"ha":1389,"x_min":0,"x_max":1128,"o":"m 0 0 l 0 87 l 434 87 l 434 0 l 0 0 m 694 0 l 694 87 l 1128 87 l 1128 0 l 694 0 m 0 174 l 0 260 l 434 260 l 434 174 l 0 174 m 694 174 l 694 260 l 1128 260 l 1128 174 l 694 174 m 87 347 l 87 434 l 347 434 l 347 347 l 87 347 m 781 347 l 781 434 l 1042 434 l 1042 347 l 781 347 m 87 521 l 87 608 l 955 608 l 955 521 l 87 521 m 87 694 l 87 781 l 955 781 l 955 694 l 87 694 m 87 868 l 87 955 l 347 955 l 347 868 l 87 868 m 781 868 l 781 955 l 1042 955 l 1042 868 l 781 868 m 0 1042 l 0 1128 l 1042 1128 l 1042 1042 l 0 1042 m 0 1215 l 0 1302 l 955 1302 l 955 1215 l 0 1215 z "},"s":{"ha":1128,"x_min":0,"x_max":868,"o":"m 0 0 l 0 87 l 781 87 l 781 0 l 0 0 m 0 174 l 0 260 l 868 260 l 868 174 l 0 174 m 608 347 l 608 434 l 868 434 l 868 347 l 608 347 m 347 521 l 347 608 l 694 608 l 694 521 l 347 521 m 174 694 l 174 781 l 521 781 l 521 694 l 174 694 m 0 868 l 0 955 l 260 955 l 260 868 l 0 868 m 0 1042 l 0 1128 l 868 1128 l 868 1042 l 0 1042 m 87 1215 l 87 1302 l 868 1302 l 868 1215 l 87 1215 z "},"t":{"ha":1215,"x_min":0,"x_max":955,"o":"m 260 0 l 260 87 l 694 87 l 694 0 l 260 0 m 260 174 l 260 260 l 694 260 l 694 174 l 260 174 m 347 347 l 347 434 l 608 434 l 608 347 l 347 347 m 347 521 l 347 608 l 608 608 l 608 521 l 347 521 m 347 694 l 347 781 l 608 781 l 608 694 l 347 694 m 347 868 l 347 955 l 608 955 l 608 868 l 347 868 m 0 1042 l 0 1128 l 955 1128 l 955 1042 l 0 1042 m 0 1215 l 0 1302 l 955 1302 l 955 1215 l 0 1215 z "},"u":{"ha":1389,"x_min":0,"x_max":1128,"o":"m 174 0 l 174 87 l 955 87 l 955 0 l 174 0 m 87 174 l 87 260 l 1042 260 l 1042 174 l 87 174 m 87 347 l 87 434 l 347 434 l 347 347 l 87 347 m 781 347 l 781 434 l 1042 434 l 1042 347 l 781 347 m 87 521 l 87 608 l 347 608 l 347 521 l 87 521 m 781 521 l 781 608 l 1042 608 l 1042 521 l 781 521 m 87 694 l 87 781 l 347 781 l 347 694 l 87 694 m 781 694 l 781 781 l 1042 781 l 1042 694 l 781 694 m 87 868 l 87 955 l 347 955 l 347 868 l 87 868 m 781 868 l 781 955 l 1042 955 l 1042 868 l 781 868 m 0 1042 l 0 1128 l 434 1128 l 434 1042 l 0 1042 m 694 1042 l 694 1128 l 1128 1128 l 1128 1042 l 694 1042 m 0 1215 l 0 1302 l 434 1302 l 434 1215 l 0 1215 m 694 1215 l 694 1302 l 1128 1302 l 1128 1215 l 694 1215 z "},"v":{"ha":1389,"x_min":0,"x_max":1128,"o":"m 347 0 l 347 87 l 781 87 l 781 0 l 347 0 m 260 174 l 260 260 l 868 260 l 868 174 l 260 174 m 260 347 l 260 434 l 521 434 l 521 347 l 260 347 m 608 347 l 608 434 l 868 434 l 868 347 l 608 347 m 174 521 l 174 608 l 434 608 l 434 521 l 174 521 m 694 521 l 694 608 l 955 608 l 955 521 l 694 521 m 174 694 l 174 781 l 434 781 l 434 694 l 174 694 m 694 694 l 694 781 l 955 781 l 955 694 l 694 694 m 87 868 l 87 955 l 347 955 l 347 868 l 87 868 m 781 868 l 781 955 l 1042 955 l 1042 868 l 781 868 m 87 1042 l 87 1128 l 347 1128 l 347 1042 l 87 1042 m 781 1042 l 781 1128 l 1042 1128 l 1042 1042 l 781 1042 m 0 1215 l 0 1302 l 434 1302 l 434 1215 l 0 1215 m 694 1215 l 694 1302 l 1128 1302 l 1128 1215 l 694 1215 z "},"w":{"ha":1910,"x_min":0,"x_max":1649,"o":"m 347 0 l 347 87 l 781 87 l 781 0 l 347 0 m 868 0 l 868 87 l 1302 87 l 1302 0 l 868 0 m 260 174 l 260 260 l 1389 260 l 1389 174 l 260 174 m 260 347 l 260 434 l 521 434 l 521 347 l 260 347 m 608 347 l 608 434 l 1042 434 l 1042 347 l 608 347 m 1128 347 l 1128 434 l 1389 434 l 1389 347 l 1128 347 m 174 521 l 174 608 l 434 608 l 434 521 l 174 521 m 694 521 l 694 608 l 955 608 l 955 521 l 694 521 m 1215 521 l 1215 608 l 1476 608 l 1476 521 l 1215 521 m 174 694 l 174 781 l 434 781 l 434 694 l 174 694 m 694 694 l 694 781 l 955 781 l 955 694 l 694 694 m 1215 694 l 1215 781 l 1476 781 l 1476 694 l 1215 694 m 87 868 l 87 955 l 347 955 l 347 868 l 87 868 m 1302 868 l 1302 955 l 1563 955 l 1563 868 l 1302 868 m 87 1042 l 87 1128 l 347 1128 l 347 1042 l 87 1042 m 1302 1042 l 1302 1128 l 1563 1128 l 1563 1042 l 1302 1042 m 0 1215 l 0 1302 l 434 1302 l 434 1215 l 0 1215 m 1215 1215 l 1215 1302 l 1649 1302 l 1649 1215 l 1215 1215 z "},"x":{"ha":1389,"x_min":0,"x_max":1128,"o":"m 0 0 l 0 87 l 434 87 l 434 0 l 0 0 m 694 0 l 694 87 l 1128 87 l 1128 0 l 694 0 m 0 174 l 0 260 l 434 260 l 434 174 l 0 174 m 694 174 l 694 260 l 1128 260 l 1128 174 l 694 174 m 87 347 l 87 434 l 347 434 l 347 347 l 87 347 m 781 347 l 781 434 l 1042 434 l 1042 347 l 781 347 m 174 521 l 174 608 l 955 608 l 955 521 l 174 521 m 174 694 l 174 781 l 955 781 l 955 694 l 174 694 m 87 868 l 87 955 l 347 955 l 347 868 l 87 868 m 781 868 l 781 955 l 1042 955 l 1042 868 l 781 868 m 0 1042 l 0 1128 l 434 1128 l 434 1042 l 0 1042 m 694 1042 l 694 1128 l 1128 1128 l 1128 1042 l 694 1042 m 0 1215 l 0 1302 l 434 1302 l 434 1215 l 0 1215 m 694 1215 l 694 1302 l 1128 1302 l 1128 1215 l 694 1215 z "},"y":{"ha":1389,"x_min":0,"x_max":1128,"o":"m 347 0 l 347 87 l 781 87 l 781 0 l 347 0 m 347 174 l 347 260 l 781 260 l 781 174 l 347 174 m 434 347 l 434 434 l 694 434 l 694 347 l 434 347 m 347 521 l 347 608 l 781 608 l 781 521 l 347 521 m 260 694 l 260 781 l 868 781 l 868 694 l 260 694 m 174 868 l 174 955 l 434 955 l 434 868 l 174 868 m 694 868 l 694 955 l 955 955 l 955 868 l 694 868 m 0 1042 l 0 1128 l 434 1128 l 434 1042 l 0 1042 m 694 1042 l 694 1128 l 1128 1128 l 1128 1042 l 694 1042 m 0 1215 l 0 1302 l 434 1302 l 434 1215 l 0 1215 m 694 1215 l 694 1302 l 1128 1302 l 1128 1215 l 694 1215 z "},"z":{"ha":1128,"x_min":0,"x_max":868,"o":"m 0 0 l 0 87 l 868 87 l 868 0 l 0 0 m 0 174 l 0 260 l 868 260 l 868 174 l 0 174 m 0 347 l 0 434 l 260 434 l 260 347 l 0 347 m 174 521 l 174 608 l 521 608 l 521 521 l 174 521 m 347 694 l 347 781 l 694 781 l 694 694 l 347 694 m 608 868 l 608 955 l 868 955 l 868 868 l 608 868 m 0 1042 l 0 1128 l 868 1128 l 868 1042 l 0 1042 m 0 1215 l 0 1302 l 868 1302 l 868 1215 l 0 1215 z "}}}
